# Blender v3.2.2 OBJ File: 'pointer.blend'
# www.blender.org
mtllib player.mtl
o 立方体_立方体.001
v 0.995565 -0.493514 -0.536900
v 1.480746 -0.493514 -0.536900
v 0.995565 -0.041544 0.409498
v 1.480746 -0.041544 0.409498
v 0.995565 0.000736 -0.729258
v 1.480746 0.000736 -0.729258
v 0.995565 0.307431 0.273680
v 1.480746 0.307431 0.273679
v 1.197406 0.548938 0.670313
v 0.995565 0.548938 0.670313
v 0.995565 0.409746 -0.692130
v 1.197406 0.409746 -0.692130
v 0.995565 0.057285 0.861660
v 0.995565 -0.749360 -0.241016
v 1.197406 -0.749360 -0.241016
v 1.197406 0.057285 0.861660
vt 0.774736 0.311260
vt 0.819835 0.438438
vt 0.756948 0.450918
vt 0.890153 0.421646
vt 0.839734 0.356322
vt 0.890153 0.356322
vt 0.508821 0.402135
vt 0.554872 0.273942
vt 0.554872 0.458000
vt 0.901518 0.506495
vt 0.836194 0.577900
vt 0.836194 0.506495
vt 0.696949 0.316373
vt 0.636036 0.457189
vt 0.646530 0.316373
vt 0.474632 0.413451
vt 0.489578 0.262686
vt 0.574186 0.272793
vt 0.574186 0.456851
vt 0.939976 0.453279
vt 0.920047 0.390809
vt 0.939976 0.390757
vt 0.863370 0.457189
vt 0.756948 0.432557
vt 0.707443 0.457189
vt 0.839734 0.255909
vt 0.839734 0.439533
vt 0.589486 0.432557
vt 0.636851 0.254814
vt 0.929948 0.272131
vt 0.910604 0.334041
vt 0.883449 0.271189
vt 0.863370 0.624645
vt 0.836194 0.624645
vt 0.819835 0.254814
vt 0.839734 0.421646
vt 0.901518 0.577900
vt 0.441156 0.278713
vt 0.892070 0.453406
vt 0.836194 0.457189
vt 0.707882 0.254814
vt 0.929948 0.334434
vn 0.7844 -0.5596 0.2673
vn 0.0000 0.3627 0.9319
vn 0.5766 0.8128 -0.0830
vn 0.0000 -0.3627 -0.9319
vn -1.0000 -0.0000 0.0000
vn 1.0000 -0.0000 0.0000
vn 0.0000 0.9948 -0.1016
vn 0.0000 -0.8541 0.5201
vn -0.0000 0.0904 -0.9959
vn 0.0000 -0.8071 0.5904
vn 0.0000 0.9769 -0.2135
vn 0.0000 -0.7564 -0.6541
vn 0.5512 -0.6734 0.4926
vn 0.8019 0.5714 -0.1747
usemtl マテリアル.004
s off
f 4/1/1 15/2/1 2/3/1
f 4/4/2 7/5/2 3/6/2
f 8/7/3 12/8/3 9/9/3
f 6/10/4 1/11/4 5/12/4
f 7/13/5 1/14/5 3/15/5
f 4/16/6 6/17/6 8/7/6
f 9/9/7 11/18/7 10/19/7
f 7/20/8 9/21/8 10/22/8
f 5/12/9 12/23/9 6/10/9
f 7/13/5 11/24/5 5/25/5
f 15/2/10 13/26/10 14/27/10
f 3/15/5 14/28/5 13/29/5
f 3/30/11 16/31/11 4/32/11
f 1/11/12 15/33/12 14/34/12
f 4/1/13 16/35/13 15/2/13
f 4/4/2 8/36/2 7/5/2
f 8/7/14 6/17/14 12/8/14
f 6/10/4 2/37/4 1/11/4
f 7/13/5 5/25/5 1/14/5
f 4/16/6 2/38/6 6/17/6
f 9/9/7 12/8/7 11/18/7
f 7/20/8 8/39/8 9/21/8
f 5/12/9 11/40/9 12/23/9
f 7/13/5 10/41/5 11/24/5
f 15/2/10 16/35/10 13/26/10
f 3/15/5 1/14/5 14/28/5
f 3/30/11 13/42/11 16/31/11
f 1/11/12 2/37/12 15/33/12
o 立方体.001_立方体.002
v -0.995094 0.000736 -0.729258
v -1.480275 0.000736 -0.729258
v -0.995094 0.307431 0.273680
v -1.480275 0.307431 0.273679
v -0.995094 -0.493514 -0.536900
v -1.480275 -0.493514 -0.536900
v -0.995094 -0.041544 0.409498
v -1.480275 -0.041544 0.409498
v -1.196936 0.048607 0.865037
v -0.995094 0.048607 0.865037
v -0.995094 -0.769819 -0.233054
v -1.196935 -0.769819 -0.233054
v -0.995094 0.540260 0.673690
v -0.995094 0.389287 -0.684168
v -1.196936 0.389287 -0.684168
v -1.196936 0.540260 0.673690
vt 0.327056 0.436611
vt 0.164075 0.495879
vt 0.147389 0.415188
vt 0.147907 0.479984
vt 0.063436 0.415860
vt 0.147389 0.415188
vt 0.219527 0.330600
vt 0.384751 0.388464
vt 0.148205 0.390358
vt 0.337572 0.604024
vt 0.245132 0.520807
vt 0.336900 0.520072
vt 0.305485 0.200149
vt 0.123886 0.123314
vt 0.304966 0.135352
vt 0.204632 0.286777
vt 0.398545 0.304434
vt 0.386426 0.413274
vt 0.149880 0.415168
vt 0.068042 0.596010
vt 0.148121 0.569755
vt 0.148394 0.595367
vt 0.400547 0.554490
vt 0.156786 0.278454
vt 0.124621 0.215084
vt 0.398861 0.519576
vt 0.162873 0.521465
vt 0.155063 0.063236
vt 0.383981 0.122279
vt 0.420580 0.665413
vt 0.340815 0.641190
vt 0.421313 0.605644
vt 0.185336 0.556213
vt 0.185056 0.521288
vt 0.400063 0.493990
vt 0.063955 0.480656
vt 0.245805 0.604759
vt 0.377450 0.242368
vt 0.067386 0.534444
vt 0.400268 0.519565
vt 0.384712 0.213567
vt 0.340510 0.666054
vn -0.7844 0.5931 -0.1814
vn 0.0000 0.3627 0.9319
vn -0.5766 -0.6551 0.4883
vn 0.0000 -0.3627 -0.9319
vn 1.0000 0.0000 0.0000
vn -1.0000 -0.0000 -0.0000
vn 0.0000 -0.8018 0.5976
vn -0.0000 0.9810 -0.1941
vn 0.0000 -0.7398 -0.6728
vn 0.0000 0.9939 -0.1105
vn -0.0000 -0.8643 0.5030
vn 0.0000 0.1153 -0.9933
vn -0.5512 0.8292 -0.0922
vn -0.8019 -0.5392 0.2575
usemtl マテリアル.005
s off
f 20/43/15 31/44/15 18/45/15
f 19/46/16 24/47/16 23/48/16
f 24/49/17 28/50/17 25/51/17
f 22/52/18 17/53/18 21/54/18
f 23/55/19 17/56/19 19/57/19
f 20/58/20 22/59/20 24/49/20
f 25/51/21 27/60/21 26/61/21
f 23/62/22 25/63/22 26/64/22
f 21/54/23 28/65/23 22/52/23
f 23/55/19 27/66/19 21/67/19
f 31/44/24 29/68/24 30/69/24
f 19/57/19 30/70/19 29/71/19
f 19/72/25 32/73/25 20/74/25
f 17/53/26 31/75/26 30/76/26
f 20/43/27 32/77/27 31/44/27
f 19/46/16 20/78/16 24/47/16
f 24/49/28 22/59/28 28/50/28
f 22/52/18 18/79/18 17/53/18
f 23/55/19 21/67/19 17/56/19
f 20/58/20 18/80/20 22/59/20
f 25/51/21 28/50/21 27/60/21
f 23/62/22 24/81/22 25/63/22
f 21/54/23 27/82/23 28/65/23
f 23/55/19 26/83/19 27/66/19
f 31/44/24 32/77/24 29/68/24
f 19/57/19 17/56/19 30/70/19
f 19/72/25 29/84/25 32/73/25
f 17/53/26 18/79/26 31/75/26
o 立方体.002_立方体.003
v 0.376567 -0.893543 -0.638060
v 0.376567 0.893134 -0.638060
v 0.376567 -0.893543 0.243428
v 0.376567 0.893134 0.243428
v -0.376567 -0.893543 -0.638060
v -0.376567 0.893134 -0.638060
v -0.376567 -0.893543 0.243428
v -0.376567 0.893134 0.243428
v 0.729703 0.520106 -0.883519
v 0.729703 0.520106 0.488886
v -0.729703 0.520106 0.488886
v -0.729703 0.520106 -0.883519
v 0.729703 -0.524612 0.488886
v -0.729703 -0.524612 0.488886
v -0.729703 -0.524612 -0.883519
v 0.729703 -0.524612 -0.883519
v 0.411128 -0.296560 -1.158704
v 0.411128 0.292054 -1.158704
v -0.411128 0.292054 -1.158704
v -0.411128 -0.296560 -1.158704
vt 0.179253 0.875595
vt 0.301011 0.913749
vt 0.152734 0.913749
vt 0.731303 0.903495
vt 0.611779 0.863192
vt 0.769456 0.863192
vt 0.274491 0.794225
vt 0.152734 0.756072
vt 0.301011 0.756072
vt 0.478031 0.794225
vt 0.437728 0.913749
vt 0.437728 0.756072
vt 0.919568 0.754315
vt 0.824330 0.698049
vt 0.919568 0.698049
vt 0.274491 0.875595
vt 0.179253 0.794225
vt 0.000000 0.913749
vt 0.088234 0.879329
vt 0.112874 0.913749
vt 0.946088 0.891032
vt 0.797810 0.809492
vt 0.946088 0.809492
vt 0.611779 0.750318
vt 0.769456 0.750318
vt 0.437728 0.756072
vt 0.356188 0.904349
vt 0.356188 0.756072
vt 0.301011 0.877829
vt 0.301011 0.782591
vt 0.649933 0.710458
vt 0.731303 0.710458
vt 0.824330 0.754315
vt 0.152734 0.794225
vt 0.152734 0.875595
vt 0.024639 0.879329
vt 0.088234 0.790491
vt 0.550243 0.764921
vt 0.579975 0.888178
vt 0.550243 0.922598
vt 0.112874 0.756072
vt 0.024639 0.790491
vt 0.000000 0.756072
vt 0.649933 0.903495
vt 0.478031 0.875595
vt 0.797810 0.891032
vt 0.437728 0.904349
vt 0.579975 0.799340
vn 0.7262 0.6875 0.0000
vn 0.0000 0.5497 0.8354
vn -0.7262 0.6875 0.0000
vn 0.0000 0.5497 -0.8354
vn 0.0000 -1.0000 0.0000
vn 0.0000 1.0000 0.0000
vn -0.6537 0.0000 -0.7568
vn -1.0000 0.0000 0.0000
vn 0.0000 0.0000 1.0000
vn 1.0000 0.0000 0.0000
vn 0.7224 -0.6915 0.0000
vn 0.0000 -0.5539 0.8326
vn -0.7224 -0.6915 0.0000
vn 0.0000 -0.5539 -0.8326
vn 0.0000 0.0000 -1.0000
vn 0.0000 0.7700 -0.6381
vn 0.0000 -0.7700 -0.6381
vn 0.6537 0.0000 -0.7568
usemtl マテリアル.006
s off
f 34/85/29 42/86/29 41/87/29
f 36/88/30 43/89/30 42/90/30
f 40/91/31 44/92/31 43/93/31
f 38/94/32 41/95/32 44/96/32
f 39/97/33 33/98/33 35/99/33
f 36/100/34 38/101/34 40/91/34
f 44/102/35 52/103/35 47/104/35
f 43/105/36 47/106/36 46/107/36
f 42/90/37 46/108/37 45/109/37
f 41/110/38 45/111/38 48/112/38
f 48/112/39 35/113/39 33/114/39
f 45/109/40 39/115/40 35/116/40
f 46/107/41 37/117/41 39/97/41
f 47/104/42 33/118/42 37/119/42
f 51/120/43 49/121/43 52/103/43
f 41/122/44 51/123/44 44/124/44
f 47/104/45 49/121/45 48/125/45
f 48/125/46 50/126/46 41/127/46
f 34/85/29 36/100/29 42/86/29
f 36/88/30 40/128/30 43/89/30
f 40/91/31 38/101/31 44/92/31
f 38/94/32 34/129/32 41/95/32
f 39/97/33 37/117/33 33/98/33
f 36/100/34 34/85/34 38/101/34
f 44/102/35 51/120/35 52/103/35
f 43/105/36 44/130/36 47/106/36
f 42/90/37 43/89/37 46/108/37
f 41/110/38 42/131/38 45/111/38
f 48/112/39 45/111/39 35/113/39
f 45/109/40 46/108/40 39/115/40
f 46/107/41 47/106/41 37/117/41
f 47/104/42 48/125/42 33/118/42
f 51/120/43 50/126/43 49/121/43
f 41/122/44 50/132/44 51/123/44
f 47/104/45 52/103/45 49/121/45
f 48/125/46 49/121/46 50/126/46
