# Blender 3.4.1
# www.blender.org
mtllib Pp.mtl
o Cube
v -1.000000 1.000000 1.000000
v -1.000000 -1.000000 1.000000
v -1.000000 1.000000 -1.000000
v -1.000000 -1.000000 -1.000000
v 1.000000 1.000000 1.000000
v 1.000000 -1.000000 1.000000
v 1.000000 1.000000 -1.000000
v 1.000000 -1.000000 -1.000000
v -1.000000 1.001289 -1.000000
v -0.821726 1.179563 -0.821726
v 0.821726 1.179563 -0.821726
v 1.000000 1.001289 -1.000000
v -1.000000 1.001289 1.000000
v -0.821726 1.179563 0.821726
v 0.821726 1.179563 0.821726
v 1.000000 1.001289 1.000000
v -0.836773 -0.836773 1.170112
v -1.000000 -1.000000 1.006885
v 1.000000 -1.000000 1.006885
v 0.836773 -0.836773 1.170112
v -0.836773 0.836773 1.170112
v -1.000000 1.000000 1.006885
v 1.000000 1.000000 1.006885
v 0.836773 0.836773 1.170112
v 1.170112 -0.838460 0.838460
v 1.008573 -1.000000 1.000000
v 1.008573 -1.000000 -1.000000
v 1.170112 -0.838460 -0.838460
v 1.008573 1.000000 -1.000000
v 1.170112 0.838460 -0.838460
v 1.170112 0.838460 0.838460
v 1.008573 1.000000 1.000000
v -1.000190 1.000000 1.000000
v -1.148888 0.851303 0.851303
v -1.148888 -0.851303 0.851303
v -1.000190 -1.000000 1.000000
v -1.148888 0.851303 -0.851303
v -1.000190 1.000000 -1.000000
v -1.000190 -1.000000 -1.000000
v -1.148888 -0.851303 -0.851303
v 1.000000 -1.000000 -0.997031
v 0.826919 -0.826919 -1.170112
v 0.826919 0.826919 -1.170112
v 1.000000 1.000000 -0.997031
v -1.000000 1.000000 -0.997031
v -0.826919 0.826919 -1.170112
v -0.826919 -0.826919 -1.170112
v -1.000000 -1.000000 -0.997031
v 1.000000 -0.999441 1.000000
v 0.829328 -1.170112 0.829328
v 0.829328 -1.170112 -0.829328
v 1.000000 -0.999441 -1.000000
v -1.000000 -0.999441 1.000000
v -0.829328 -1.170112 0.829328
v -0.829328 -1.170112 -0.829328
v -1.000000 -0.999441 -1.000000
v 0.826919 -0.826919 -1.170112
v 0.826919 0.826919 -1.170112
v -0.826919 0.826919 -1.170112
v -0.826919 -0.826919 -1.170112
v 0.826919 -0.826919 -1.581576
v 0.019511 -0.019511 -2.388984
v 0.019511 0.019511 -2.388984
v 0.826919 0.826919 -1.581576
v -0.826919 0.826919 -1.581576
v -0.019511 0.019511 -2.388984
v -0.019511 -0.019511 -2.388984
v -0.826919 -0.826919 -1.581576
vn 1.0000 -0.0000 -0.0000
vn -0.0000 -1.0000 -0.0000
vn -0.0000 1.0000 -0.0000
vn -0.0000 -0.0000 1.0000
vn -1.0000 -0.0000 -0.0000
vn -0.0000 -0.0000 -1.0000
vn -0.0000 0.7071 -0.7071
vn -0.7071 0.7071 -0.0000
vn 0.7071 0.7071 -0.0000
vn -0.0000 0.7071 0.7071
vn -0.0000 -0.7071 0.7071
vn -0.7071 -0.0000 0.7071
vn 0.7071 -0.0000 0.7071
vn 0.7071 -0.7071 -0.0000
vn 0.7071 -0.0000 -0.7071
vn -0.7071 -0.0000 -0.7071
vn -0.7071 -0.7071 -0.0000
vn -0.0000 -0.7071 -0.7071
vt 0.625000 0.500000
vt 0.375000 0.500000
vt 0.625000 0.750000
vt 0.375000 0.750000
vt 0.625000 0.250000
vt 0.125000 0.500000
vt 0.375000 0.250000
vt 0.625000 1.000000
vt 0.625000 0.000000
vt 0.125000 0.750000
vt 0.375000 0.000000
vt 0.625000 0.750000
vt 0.647284 0.727716
vt 0.852716 0.727716
vt 0.625000 0.000000
vt 0.625000 1.000000
vt 0.875000 0.750000
vt 0.625000 0.500000
vt 0.647284 0.522284
vt 0.852716 0.522284
vt 0.625000 0.250000
vt 0.875000 0.500000
vt 0.395403 0.479597
vt 0.375000 0.500000
vt 0.125000 0.500000
vt 0.375000 0.250000
vt 0.395403 0.270403
vt 0.604597 0.479597
vt 0.625000 0.500000
vt 0.625000 0.250000
vt 0.604597 0.270403
vt 0.395192 0.229808
vt 0.375000 0.250000
vt 0.375000 0.000000
vt 0.395192 0.020192
vt 0.625000 0.000000
vt 0.604808 0.020192
vt 0.604808 0.229808
vt 0.625000 0.250000
vt 0.625000 0.500000
vt 0.606413 0.518587
vt 0.393587 0.518587
vt 0.375000 0.500000
vt 0.606413 0.731413
vt 0.625000 0.750000
vt 0.375000 0.750000
vt 0.393587 0.731413
vt 0.375000 1.000000
vt 0.125000 0.750000
vt 0.375000 0.000000
vt 0.396635 0.978365
vt 0.603365 0.978365
vt 0.625000 0.000000
vt 0.625000 1.000000
vt 0.625000 0.750000
vt 0.603365 0.771635
vt 0.396635 0.771635
vt 0.375000 0.750000
vt 0.125000 0.500000
vt 0.375000 0.250000
vt 0.146334 0.521334
vt 0.146334 0.728666
vt 0.125000 0.750000
vt 0.375000 0.000000
vt 0.375000 0.500000
vt 0.353666 0.521334
vt 0.353666 0.728666
vt 0.375000 0.750000
vt 0.396635 0.978365
vt 0.603365 0.978365
vt 0.603365 0.771635
vt 0.396635 0.771635
vt 0.396635 0.978365
vt 0.497561 0.877439
vt 0.502439 0.877439
vt 0.603365 0.978365
vt 0.603365 0.771635
vt 0.502439 0.872561
vt 0.497561 0.872561
vt 0.396635 0.771635
s 0
usemtl Material
f 7/9/1 16/21/1 5/5/1
f 7/8/2 45/55/2 3/3/2
f 5/5/3 29/36/3 7/9/3
f 8/10/4 56/68/4 4/4/4
f 5/5/1 19/26/1 6/7/1
f 1/1/5 9/12/5 3/3/5
f 5/5/4 13/18/4 1/1/4
f 3/3/6 12/16/6 7/8/6
f 2/2/5 22/29/5 1/1/5
f 6/6/2 18/24/2 2/2/2
f 1/1/3 23/30/3 5/5/3
f 4/4/3 41/49/3 8/10/3
f 8/11/5 44/53/5 7/9/5
f 3/3/1 48/58/1 4/4/1
f 2/2/6 49/59/6 6/6/6
f 4/4/1 53/65/1 2/2/1
f 54/66/2 51/62/2 50/61/2
f 2/2/2 39/46/2 4/4/2
f 4/4/6 38/45/6 3/3/6
f 6/7/4 32/39/4 5/5/4
f 30/37/1 25/32/1 28/35/1
f 7/9/6 27/34/6 8/11/6
f 11/14/7 9/12/7 10/13/7
f 10/13/8 13/18/8 14/19/8
f 15/20/9 12/17/9 11/14/9
f 14/19/10 16/22/10 15/20/10
f 15/20/3 10/13/3 14/19/3
f 19/26/11 17/23/11 18/24/11
f 18/24/12 21/28/12 22/29/12
f 20/27/13 23/30/13 24/31/13
f 22/29/10 24/31/10 23/30/10
f 24/31/4 17/23/4 20/27/4
f 3/3/3 33/40/3 1/1/3
f 34/41/5 40/47/5 35/42/5
f 27/34/14 25/32/14 26/33/14
f 29/36/15 28/35/15 27/34/15
f 26/33/13 31/38/13 32/39/13
f 32/39/9 30/37/9 29/36/9
f 8/11/2 26/33/2 6/7/2
f 33/40/12 35/42/12 36/43/12
f 39/46/16 37/44/16 38/45/16
f 38/45/8 34/41/8 33/40/8
f 36/43/17 40/47/17 39/46/17
f 1/1/4 36/43/4 2/2/4
f 57/69/15 44/54/15 41/48/15
f 59/71/16 48/58/16 45/55/16
f 44/54/7 59/71/7 45/55/7
f 48/58/18 57/69/18 41/48/18
f 46/56/5 68/80/5 47/57/5
f 51/62/14 49/59/14 50/61/14
f 50/61/11 53/65/11 54/66/11
f 55/67/18 52/63/18 51/62/18
f 54/66/17 56/68/17 55/67/17
f 6/7/5 52/64/5 8/11/5
f 42/51/3 58/70/3 57/69/3
f 46/56/3 60/72/3 59/71/3
f 43/52/3 59/71/3 58/70/3
f 47/57/3 57/69/3 60/72/3
f 47/57/2 61/73/2 42/51/2
f 66/78/6 62/74/6 67/79/6
f 43/52/3 65/77/3 46/56/3
f 62/74/15 64/76/15 61/73/15
f 66/78/16 68/80/16 65/77/16
f 63/75/7 65/77/7 64/76/7
f 67/79/18 61/73/18 68/80/18
f 42/51/1 64/76/1 43/52/1
f 7/9/1 12/15/1 16/21/1
f 7/8/2 44/54/2 45/55/2
f 5/5/3 32/39/3 29/36/3
f 8/10/4 52/63/4 56/68/4
f 5/5/1 23/30/1 19/26/1
f 1/1/5 13/18/5 9/12/5
f 5/5/4 16/21/4 13/18/4
f 3/3/6 9/12/6 12/16/6
f 2/2/5 18/24/5 22/29/5
f 6/6/2 19/25/2 18/24/2
f 1/1/3 22/29/3 23/30/3
f 4/4/3 48/58/3 41/49/3
f 8/11/5 41/50/5 44/53/5
f 3/3/1 45/55/1 48/58/1
f 2/2/6 53/65/6 49/59/6
f 4/4/1 56/68/1 53/65/1
f 54/66/2 55/67/2 51/62/2
f 2/2/2 36/43/2 39/46/2
f 4/4/6 39/46/6 38/45/6
f 6/7/4 26/33/4 32/39/4
f 30/37/1 31/38/1 25/32/1
f 7/9/6 29/36/6 27/34/6
f 11/14/7 12/17/7 9/12/7
f 10/13/8 9/12/8 13/18/8
f 15/20/9 16/22/9 12/17/9
f 14/19/10 13/18/10 16/22/10
f 15/20/3 11/14/3 10/13/3
f 19/26/11 20/27/11 17/23/11
f 18/24/12 17/23/12 21/28/12
f 20/27/13 19/26/13 23/30/13
f 22/29/10 21/28/10 24/31/10
f 24/31/4 21/28/4 17/23/4
f 3/3/3 38/45/3 33/40/3
f 34/41/5 37/44/5 40/47/5
f 27/34/14 28/35/14 25/32/14
f 29/36/15 30/37/15 28/35/15
f 26/33/13 25/32/13 31/38/13
f 32/39/9 31/38/9 30/37/9
f 8/11/2 27/34/2 26/33/2
f 33/40/12 34/41/12 35/42/12
f 39/46/16 40/47/16 37/44/16
f 38/45/8 37/44/8 34/41/8
f 36/43/17 35/42/17 40/47/17
f 1/1/4 33/40/4 36/43/4
f 57/69/15 58/70/15 44/54/15
f 59/71/16 60/72/16 48/58/16
f 44/54/7 58/70/7 59/71/7
f 48/58/18 60/72/18 57/69/18
f 46/56/5 65/77/5 68/80/5
f 51/62/14 52/63/14 49/59/14
f 50/61/11 49/59/11 53/65/11
f 55/67/18 56/68/18 52/63/18
f 54/66/17 53/65/17 56/68/17
f 6/7/5 49/60/5 52/64/5
f 42/51/3 43/52/3 58/70/3
f 46/56/3 47/57/3 60/72/3
f 43/52/3 46/56/3 59/71/3
f 47/57/3 42/51/3 57/69/3
f 47/57/2 68/80/2 61/73/2
f 66/78/6 63/75/6 62/74/6
f 43/52/3 64/76/3 65/77/3
f 62/74/15 63/75/15 64/76/15
f 66/78/16 67/79/16 68/80/16
f 63/75/7 66/78/7 65/77/7
f 67/79/18 62/74/18 61/73/18
f 42/51/1 61/73/1 64/76/1
